<?xml version="1.0" encoding="UTF-8"?>
<svg id="Ebene_1" xmlns="http://www.w3.org/2000/svg" version="1.1" viewBox="0 0 10.23 20.24">
  <!-- Generator: Adobe Illustrator 30.1.0, SVG Export Plug-In . SVG Version: 2.1.1 Build 136)  -->
  <defs>
    <style>
      .st0 {
        fill: none;
        stroke: #000;
        stroke-linejoin: bevel;
      }
    </style>
  </defs>
  <path d="M2.71,1.13l6.27,1.09-.79,2.85-2.25,1.76.62,1.79h1.56l-.02,1.5-2.51,5.56-.03-4.21-.62-.92-3.93-1.62v-1.97l5.48-1.63.67-.65.27-.84-.76-1.29-4.15-.79.21-.61M2.04,0l-.85,2.51,5.28,1.01-.27.84L0,6.2v3.39l4.55,1.88.07,8.77,4.47-9.9.04-2.72h-2.57l2.51-1.96,1.17-4.23L2.04,0h0Z"/>
  <line class="st0" x1="4.02" y1="6.52" x2="4.02" y2="9.6"/>
  <line class="st0" x1="5.56" y1="8.06" x2="2.48" y2="8.06"/>
</svg>